<?xml version="1.0" encoding="UTF-8" standalone="no"?>
<svg
   xmlns:dc="http://purl.org/dc/elements/1.1/"
   xmlns:cc="http://creativecommons.org/ns#"
   xmlns:rdf="http://www.w3.org/1999/02/22-rdf-syntax-ns#"
   xmlns:svg="http://www.w3.org/2000/svg"
   xmlns="http://www.w3.org/2000/svg"
   xmlns:sodipodi="http://sodipodi.sourceforge.net/DTD/sodipodi-0.dtd"
   xmlns:inkscape="http://www.inkscape.org/namespaces/inkscape"
   width="210mm"
   height="297mm"
   viewBox="0 0 210 297"
   version="1.1"
   id="svg1822"
   inkscape:version="1.0 (4035a4fb49, 2020-05-01)"
   sodipodi:docname="microfone.svg">
  <defs
     id="defs1816" />
  <sodipodi:namedview
     id="base"
     pagecolor="#ffffff"
     bordercolor="#666666"
     borderopacity="1.0"
     inkscape:pageopacity="0.0"
     inkscape:pageshadow="2"
     inkscape:zoom="0.35"
     inkscape:cx="352.52123"
     inkscape:cy="725.76706"
     inkscape:document-units="mm"
     inkscape:current-layer="layer1"
     inkscape:document-rotation="0"
     showgrid="false"
     inkscape:window-width="1440"
     inkscape:window-height="870"
     inkscape:window-x="0"
     inkscape:window-y="0"
     inkscape:window-maximized="0" />
  <metadata
     id="metadata1819">
    <rdf:RDF>
      <cc:Work
         rdf:about="">
        <dc:format>image/svg+xml</dc:format>
        <dc:type
           rdf:resource="http://purl.org/dc/dcmitype/StillImage" />
        <dc:title />
      </cc:Work>
    </rdf:RDF>
  </metadata>
  <g
     inkscape:label="Layer 1"
     inkscape:groupmode="layer"
     id="layer1">
    <path
       style="fill:#ffffff;fill-opacity:1;stroke-width:0.572055"
       d="m 44.608347,294.52496 c -0.692706,-0.13285 -1.920601,-1.02578 -2.717688,-1.97374 -1.381619,-1.64163 -1.44994,-2.0563 -1.44994,-8.84959 0,-7.40151 0.483946,-9.20729 2.751848,-10.32796 0.531392,-0.2657 11.907919,-0.60731 25.279071,-0.75913 l 24.313066,-0.28468 0.161316,-7.53058 0.161316,-7.53058 -1.589432,-0.31313 c -0.873,-0.17082 -2.619,-0.48396 -3.87821,-0.68323 -3.429375,-0.55986 -10.297611,-2.47191 -14.37794,-4.00821 C 47.566111,242.5928 27.432061,221.6275 18.668842,195.41945 14.966182,184.34563 14.131137,177.7896 14.131137,159.82666 v -15.43314 l 1.622643,-1.62265 c 1.96425,-1.96424 5.055812,-2.53928 11.710545,-2.18059 8.725261,0.47444 8.583872,0.13284 9.027015,21.33917 0.332119,15.90568 0.464968,17.56153 1.808629,22.62684 3.140904,11.83675 9.308844,22.587 17.872791,31.15094 12.891,12.89099 29.451442,19.73171 47.77117,19.73171 18.31878,0 34.87922,-6.84072 47.77022,-19.73171 8.56394,-8.56394 14.73188,-19.31419 17.87183,-31.15094 1.34463,-5.06531 1.47651,-6.72116 1.80959,-22.62684 0.44598,-21.20348 0.30364,-20.86946 9.02701,-21.33917 6.65473,-0.36059 9.74724,0.21824 11.71054,2.18059 l 1.62264,1.62265 v 15.43314 c 0,12.85588 -0.18978,16.5576 -1.15198,22.17136 -5.44012,31.82467 -27.78135,58.90002 -57.97863,70.26611 -4.08032,1.5363 -10.94855,3.45025 -14.37793,4.00821 -1.25827,0.20877 -3.00332,0.51241 -3.87822,0.68323 l -1.58943,0.31313 0.16133,7.53058 0.16131,7.53058 24.31306,0.28468 c 13.37115,0.16132 24.74672,0.50292 25.27905,0.75913 2.27265,1.12162 2.75186,2.92455 2.75186,10.36308 0,7.10451 0,7.17664 -1.66912,9.02987 l -1.66916,1.86841 -59.11256,0.095 c -32.510746,0 -59.681949,-0.095 -60.379401,-0.1803 z M 95.358159,223.13437 C 81.802927,220.81619 69.321864,213.01422 61.484777,201.96128 58.538401,197.80598 55.548373,191.57161 53.745438,185.8231 l -1.577095,-5.02735 v -67.2163 -67.217244 l 1.279136,-4.862234 C 61.132731,12.28292 91.466664,-4.3287641 120.23963,4.9231449 136.66058,10.201952 149.93398,24.402444 154.43184,41.499972 l 1.27817,4.862234 v 67.217244 67.2163 l -1.57708,5.02735 c -4.5491,14.50414 -13.07509,25.0646 -25.69564,31.82941 -10.23404,5.48471 -21.8288,7.40628 -33.079131,5.48186 z"
       id="path1796" />
  </g>
</svg>
